<?xml version="1.0" standalone="no"?>
<!DOCTYPE svg PUBLIC "-//W3C//DTD SVG 20010904//EN"
 "http://www.w3.org/TR/2001/REC-SVG-20010904/DTD/svg10.dtd">
<svg version="1.0" xmlns="http://www.w3.org/2000/svg"
 width="256.000000pt" height="256.000000pt" viewBox="0 0 256.000000 256.000000"
 preserveAspectRatio="xMidYMid meet">

<g transform="translate(0.000000,256.000000) scale(0.100000,-0.100000)"
fill="#000000" stroke="none">
<path d="M1140 2554 c-560 -72 -997 -473 -1116 -1024 -26 -119 -26 -381 0
-500 110 -512 494 -896 1006 -1006 119 -26 381 -26 500 0 512 110 896 494
1006 1006 26 119 26 381 0 500 -109 505 -485 887 -986 1001 -83 19 -331 33
-410 23z m1100 -1086 c24 -182 -76 -360 -247 -441 -64 -30 -75 -32 -178 -32
-99 0 -116 3 -169 28 -119 55 -199 146 -236 266 -24 77 -26 127 -4 135 9 3 40
6 69 6 52 0 54 -1 65 -35 44 -133 235 -120 272 18 11 43 14 46 52 52 117 19
306 56 327 64 32 12 41 1 49 -61z m-1792 13 c65 -11 146 -24 181 -28 63 -8 65
-9 74 -43 15 -61 76 -110 137 -110 55 0 112 41 135 97 10 25 13 26 100 24 49
-1 91 -3 92 -5 1 -1 -2 -31 -8 -67 -21 -136 -108 -253 -236 -316 -65 -32 -86
-37 -161 -41 -106 -5 -176 13 -259 67 -116 75 -182 188 -190 325 -5 80 -1 116
13 116 3 0 58 -9 122 -19z"/>
</g>
</svg>
